<?xml version="1.0" standalone="no"?><!DOCTYPE svg PUBLIC "-//W3C//DTD SVG 1.1//EN" "http://www.w3.org/Graphics/SVG/1.1/DTD/svg11.dtd"><svg t="1603094988542" class="icon" viewBox="0 0 1024 1024" version="1.1" xmlns="http://www.w3.org/2000/svg" p-id="11565" xmlns:xlink="http://www.w3.org/1999/xlink" width="200" height="200"><defs><style type="text/css"></style></defs><path d="M864.661 903.53H180.608c-40.853 0-73.941-29.567-73.941-70.506v-82.027c0-40.853 33.088-70.442 73.941-70.442h684.075c40.853 0 73.984 29.589 73.984 70.442v82.027c-0.022 40.939-33.131 70.507-74.006 70.507z m-82.624-164.99a53.547 53.547 0 0 0-53.546 53.482 53.59 53.59 0 0 0 53.546 53.547 53.525 53.525 0 0 0 0-107.008z m82.624-111.318H180.608c-40.853-0.021-73.941-29.568-73.941-70.442v-82.07c0-40.853 33.088-70.442 73.941-70.442h684.075c40.853 0 73.984 29.546 73.984 70.442v82.07c-0.022 40.874-33.131 70.442-74.006 70.442zM782.037 462.23a53.61 53.61 0 0 0-53.546 53.611 53.653 53.653 0 0 0 53.546 53.547 53.59 53.59 0 1 0 0-107.179z m82.624-111.104H180.608c-40.853 0-73.941-29.696-73.941-70.528v-81.984c0-40.917 33.088-70.613 73.941-70.613h684.075c40.853 0 73.984 29.696 73.984 70.635v81.984c-0.022 40.81-33.131 70.506-74.006 70.506zM782.037 186.07a53.59 53.59 0 0 0-53.546 53.547 53.547 53.547 0 0 0 107.093 0 53.547 53.547 0 0 0-53.547-53.547z" fill="#515151" p-id="11566"></path></svg>